<svg xmlns="http://www.w3.org/2000/svg" width="581.79" height="91.08" viewBox="0 0 581.79 91.08"><defs><style>.a,.c{fill:#9fc3da;}.b{fill:#00334e;}.c{stroke:#9fc3da;stroke-width:2px;}</style></defs><title>boltmail2.0-logo-bgwhite</title><path class="a" d="M6,39.17H46.8A15.83,15.83,0,0,1,62.6,55v20.3A15.84,15.84,0,0,1,46.8,91.08h-31A15.84,15.84,0,0,1,0,75.27V14.07a3,3,0,0,1,3-3,3,3,0,0,1,3,3ZM56.7,55a9.84,9.84,0,0,0-9.9-9.8H6v30.1a9.82,9.82,0,0,0,9.8,9.81h31a9.84,9.84,0,0,0,9.9-9.81Z"/><path class="a" d="M126.5,39.07a15.83,15.83,0,0,1,15.8,15.8v20.4a15.84,15.84,0,0,1-15.8,15.81H88.7A15.84,15.84,0,0,1,72.9,75.27V54.87a15.83,15.83,0,0,1,15.8-15.8ZM78.9,75.27a9.82,9.82,0,0,0,9.8,9.81h37.8a9.82,9.82,0,0,0,9.8-9.81V54.87a9.82,9.82,0,0,0-9.8-9.8H88.7a9.82,9.82,0,0,0-9.8,9.8Z"/><path class="a" d="M149.5,14.07a3,3,0,0,1,3-3,3,3,0,0,1,3,3v61.2a9.82,9.82,0,0,0,9.8,9.81h9.9a3,3,0,0,1,0,6h-9.9a15.84,15.84,0,0,1-15.8-15.81Z"/><path class="a" d="M212.4,85.08a3,3,0,0,1,3,3,3,3,0,0,1-3,3H201.8A15.84,15.84,0,0,1,186,75.27V14.07a3,3,0,0,1,3-3,3,3,0,0,1,3,3V39h20.3a3,3,0,1,1,0,5.9H192v30.4a9.82,9.82,0,0,0,9.8,9.81Z"/><path class="b" d="M304.8,39.07a16.17,16.17,0,0,1,16.1,16.2V88.18a3,3,0,0,1-6,0V55.27a9.84,9.84,0,0,0-10.1-9.9H284a9.73,9.73,0,0,0-9.6,9.9V88.18a3.2,3.2,0,0,1-2.9,2.8.75.75,0,0,1-.5.1,2.93,2.93,0,0,1-3-2.9V55.27a9.77,9.77,0,0,0-9.8-9.9h-20a9.82,9.82,0,0,0-9.7,9.9V88.18a3.08,3.08,0,0,1-3.1,2.9,2.9,2.9,0,0,1-2.9-2.9V55.27c0-8.8,7.1-16.2,15.7-16.2h20A15.85,15.85,0,0,1,271,46c3.3-4,7.8-6.9,13-6.9Z"/><path class="b" d="M376.3,39.07a15.45,15.45,0,0,1,15.5,15.5v21a15.43,15.43,0,0,1-15.4,15.51H345.3a15.51,15.51,0,1,1,.1-31H386v-5.5a9.71,9.71,0,0,0-9.7-9.7h-43a2.9,2.9,0,1,1,0-5.8Zm-31,46.11h31.1a9.6,9.6,0,0,0,9.6-9.61v-9.7H345.4a9.71,9.71,0,0,0-9.7,9.7A9.6,9.6,0,0,0,345.3,85.18Z"/><path class="b" d="M400.59,29.17a3,3,0,0,1,3-3,3,3,0,0,1,3,3v3.5a3.07,3.07,0,0,1-3,3,3,3,0,0,1-3-3Zm6,12.8V88.08a3,3,0,0,1-3,3,3,3,0,0,1-3-3V42a2.93,2.93,0,0,1,3-2.9A3,3,0,0,1,406.59,42Z"/><path class="b" d="M416.29,14.07a3,3,0,0,1,3-3,3,3,0,0,1,3,3v61.2a9.83,9.83,0,0,0,9.81,9.81H442a3,3,0,0,1,0,6h-9.9a15.84,15.84,0,0,1-15.81-15.81Z"/><path class="c" d="M504.41,73.54c-.66,1.49-2.61,2.44-5.83,2.85a84.33,84.33,0,0,1-9.92.5c-5-.09-8.23-.09-9.55,0h-4.59q-7.44,0-9.54-5.31a216.19,216.19,0,0,1,10.16-20.14q7.32-13.47,10.17-20c1.16-2.56,2.36-5.15,3.6-7.79a21.9,21.9,0,0,0,2-7.9q0-5.19-2.6-5.19-1.49,0-3.54,3.41T481,20.47a2.52,2.52,0,0,0-.25,1.11,8.1,8.1,0,0,0,.69,2.36,8.21,8.21,0,0,1,.68,2.73,3.27,3.27,0,0,1-1,2.29A3.13,3.13,0,0,1,478.74,30Q477,30,472,25.3a5.14,5.14,0,0,1-1.61-4,15.43,15.43,0,0,1,2.23-7.07A25.19,25.19,0,0,1,489,1.37,9.84,9.84,0,0,1,491.64,1q5.7,0,7.44,5.21a25.51,25.51,0,0,1,1.11,7.56,41.75,41.75,0,0,1-3,14.14q-3,6.69-5.83,13.39-1.62,3.72-6.33,12.15a74,74,0,0,0-5.95,12.4q2,.14,11.16.13a44.69,44.69,0,0,1,11,1.11c2.31.66,3.47,2.28,3.47,4.84A3.53,3.53,0,0,1,504.41,73.54Z"/><path class="c" d="M532.93,61.26c.74,3,.6,5-.44,6a5.43,5.43,0,0,1-4.52,1.3,7.34,7.34,0,0,1-4.71-2.23A6.15,6.15,0,0,1,521,61.88a4,4,0,0,1,1.24-2.79,3.18,3.18,0,0,1,2.61-1.17c1.57.08,3.14.2,4.71.37A4,4,0,0,1,532.93,61.26Z"/><path class="c" d="M580.42,33.86a33.12,33.12,0,0,1,.37,5,36.59,36.59,0,0,1-9.55,24.8q-7.68,8.81-15.13,8.31a13.39,13.39,0,0,1-9.79-5.21q-5.58-6.94-5.58-18.1a62.54,62.54,0,0,1,4.59-22.45q3-7.56,6.44-10.41a18.25,18.25,0,0,1,11.78-4.22,11.58,11.58,0,0,1,7.69,2.6A27.24,27.24,0,0,1,577.07,21a18.47,18.47,0,0,1,2.29,6.33Q579.93,30.64,580.42,33.86Zm-10.29-1.18c-.5-2-.91-4-1.24-6a7.72,7.72,0,0,0-3.23-4.84,6.09,6.09,0,0,0-2.6-1,3.73,3.73,0,0,0-2.36,1.36q-9.42,9.8-9.42,24.68a27.24,27.24,0,0,0,4.21,15.25,1.78,1.78,0,0,0,1.49,1c.75,0,2.19-1.15,4.34-3.47q9.55-10.29,9.55-20.83A26,26,0,0,0,570.13,32.68Z"/></svg>