<svg xmlns="http://www.w3.org/2000/svg" width="469.1" height="80" viewBox="0 0 469.1 80"><defs><style>.a{fill:#9fc3da;}.b{fill:#00334e;}</style></defs><title>bolthost-logo-whitebg</title><path class="a" d="M6,28.1H46.8A15.83,15.83,0,0,1,62.6,43.9V64.2A15.83,15.83,0,0,1,46.8,80h-31A15.83,15.83,0,0,1,0,64.2V3A3,3,0,0,1,3,0,3,3,0,0,1,6,3ZM56.7,43.9a9.84,9.84,0,0,0-9.9-9.8H6V64.2A9.82,9.82,0,0,0,15.8,74h31a9.84,9.84,0,0,0,9.9-9.8Z"/><path class="a" d="M126.5,28a15.83,15.83,0,0,1,15.8,15.8V64.2A15.83,15.83,0,0,1,126.5,80H88.7A15.83,15.83,0,0,1,72.9,64.2V43.8A15.83,15.83,0,0,1,88.7,28ZM78.9,64.2A9.82,9.82,0,0,0,88.7,74h37.8a9.82,9.82,0,0,0,9.8-9.8V43.8a9.82,9.82,0,0,0-9.8-9.8H88.7a9.82,9.82,0,0,0-9.8,9.8Z"/><path class="a" d="M149.5,3a3,3,0,0,1,3-3,3,3,0,0,1,3,3V64.2a9.82,9.82,0,0,0,9.8,9.8h9.9a3,3,0,0,1,0,6h-9.9a15.83,15.83,0,0,1-15.8-15.8Z"/><path class="a" d="M212.4,74a3,3,0,0,1,3,3,2.94,2.94,0,0,1-3,3H201.8A15.83,15.83,0,0,1,186,64.2V3a3,3,0,0,1,3-3,3,3,0,0,1,3,3V27.9h20.3a3,3,0,1,1,0,5.9H192V64.2a9.82,9.82,0,0,0,9.8,9.8Z"/><path class="b" d="M228.3,77.1a2.9,2.9,0,0,1-5.8,0V2.9a2.9,2.9,0,0,1,5.8,0V31.4a15.59,15.59,0,0,1,9.6-3.4h29.2a15.49,15.49,0,0,1,15.4,15.5V77.1a2.9,2.9,0,1,1-5.8,0V43.5a9.6,9.6,0,0,0-9.6-9.6H237.9a9.6,9.6,0,0,0-9.6,9.6Z"/><path class="b" d="M344.8,28a15.83,15.83,0,0,1,15.8,15.8V64.2A15.83,15.83,0,0,1,344.8,80H307a15.83,15.83,0,0,1-15.8-15.8V43.8A15.83,15.83,0,0,1,307,28ZM297.2,64.2A9.82,9.82,0,0,0,307,74h37.8a9.82,9.82,0,0,0,9.8-9.8V43.8a9.82,9.82,0,0,0-9.8-9.8H307a9.82,9.82,0,0,0-9.8,9.8Z"/><path class="b" d="M426.6,28a3,3,0,0,1,0,6H384.3c-5.7,0-10.61,3.9-10.61,8.5S378.6,51,384.3,51h29.8c9.1,0,16.5,6.4,16.5,14.4S423.2,80,414.1,80H370.9a3,3,0,0,1,0-5.9h43.2c5.7,0,10.5-4.1,10.5-8.7s-4.8-8.5-10.5-8.5H384.3c-9.11,0-16.51-6.5-16.51-14.4S375.19,28,384.3,28Z"/><path class="b" d="M466.1,74a3,3,0,0,1,3,3,2.94,2.94,0,0,1-3,3H455.49a15.83,15.83,0,0,1-15.8-15.8V3a3,3,0,0,1,3-3,3,3,0,0,1,3,3V27.9H466a3,3,0,1,1,0,5.9H445.69V64.2a9.82,9.82,0,0,0,9.8,9.8Z"/></svg>