<svg xmlns="http://www.w3.org/2000/svg" width="138.51" height="138.51" viewBox="0 0 138.51 138.51"><defs><style>.a{fill:#02334e;}.b{fill:#9fc3da;}</style></defs><title>bm-gravitar</title><rect class="a" width="138.51" height="138.51"/><path class="b" d="M44,57.35H84.76a15.84,15.84,0,0,1,15.8,15.81v20.3a15.83,15.83,0,0,1-15.8,15.8h-31A15.83,15.83,0,0,1,38,93.46V32.25a3,3,0,0,1,3-3,3,3,0,0,1,3,3ZM94.66,73.16a9.84,9.84,0,0,0-9.9-9.81H44V93.46a9.82,9.82,0,0,0,9.8,9.8h31a9.84,9.84,0,0,0,9.9-9.8Z"/></svg>