<svg xmlns="http://www.w3.org/2000/svg" width="556.03" height="80" viewBox="0 0 556.03 80"><defs><style>.a,.c{fill:#9fc3da;}.b{fill:#fff;}.c{stroke:#9fc3da;stroke-width:2px;}</style></defs><title>boltmail2.0-logo2</title><path class="a" d="M6,28.1H46.8A15.83,15.83,0,0,1,62.6,43.9V64.2A15.83,15.83,0,0,1,46.8,80h-31A15.83,15.83,0,0,1,0,64.2V3A3,3,0,0,1,3,0,3,3,0,0,1,6,3ZM56.7,43.9a9.84,9.84,0,0,0-9.9-9.8H6V64.2A9.82,9.82,0,0,0,15.8,74h31a9.84,9.84,0,0,0,9.9-9.8Z"/><path class="a" d="M126.5,28a15.83,15.83,0,0,1,15.8,15.8V64.2A15.83,15.83,0,0,1,126.5,80H88.7A15.83,15.83,0,0,1,72.9,64.2V43.8A15.83,15.83,0,0,1,88.7,28ZM78.9,64.2A9.82,9.82,0,0,0,88.7,74h37.8a9.82,9.82,0,0,0,9.8-9.8V43.8a9.82,9.82,0,0,0-9.8-9.8H88.7a9.82,9.82,0,0,0-9.8,9.8Z"/><path class="a" d="M149.5,3a3,3,0,0,1,3-3,3,3,0,0,1,3,3V64.2a9.82,9.82,0,0,0,9.8,9.8h9.9a3,3,0,0,1,0,6h-9.9a15.83,15.83,0,0,1-15.8-15.8Z"/><path class="a" d="M212.4,74a3,3,0,0,1,3,3,2.94,2.94,0,0,1-3,3H201.8A15.83,15.83,0,0,1,186,64.2V3a3,3,0,0,1,3-3,3,3,0,0,1,3,3V27.9h20.3a3,3,0,1,1,0,5.9H192V64.2a9.82,9.82,0,0,0,9.8,9.8Z"/><path class="b" d="M304.8,28a16.17,16.17,0,0,1,16.1,16.2V77.1a3,3,0,0,1-6,0V44.2a9.84,9.84,0,0,0-10.1-9.9H284a9.73,9.73,0,0,0-9.6,9.9V77.1a3.19,3.19,0,0,1-2.9,2.8.75.75,0,0,1-.5.1,2.92,2.92,0,0,1-3-2.9V44.2a9.77,9.77,0,0,0-9.8-9.9h-20a9.82,9.82,0,0,0-9.7,9.9V77.1a3.07,3.07,0,0,1-3.1,2.9,2.9,2.9,0,0,1-2.9-2.9V44.2c0-8.8,7.1-16.2,15.7-16.2h20A15.85,15.85,0,0,1,271,34.9c3.3-4,7.8-6.9,13-6.9Z"/><path class="b" d="M376.3,28a15.45,15.45,0,0,1,15.5,15.5v21A15.43,15.43,0,0,1,376.4,80H345.3a15.5,15.5,0,1,1,.1-31H386V43.5a9.71,9.71,0,0,0-9.7-9.7h-43a2.9,2.9,0,1,1,0-5.8Zm-31,46.1h31.1a9.6,9.6,0,0,0,9.6-9.6V54.8H345.4a9.71,9.71,0,0,0-9.7,9.7A9.6,9.6,0,0,0,345.3,74.1Z"/><path class="b" d="M400.59,18.1a3,3,0,0,1,3-3,3,3,0,0,1,3,3v3.5a3.07,3.07,0,0,1-3,3,3,3,0,0,1-3-3Zm6,12.8V77a3,3,0,0,1-3,3,3,3,0,0,1-3-3V30.9a2.93,2.93,0,0,1,3-2.9A3,3,0,0,1,406.59,30.9Z"/><path class="b" d="M416.3,3a2.94,2.94,0,0,1,3-3,3,3,0,0,1,3,3V64.2a9.82,9.82,0,0,0,9.8,9.8H442a3,3,0,0,1,0,6h-9.9a15.83,15.83,0,0,1-15.8-15.8Z"/><path class="c" d="M500.21,62.08q-.72,1.61-4.18,2a59.89,59.89,0,0,1-7.12.36q-5.43-.09-6.86,0h-3.29q-5.34,0-6.85-3.82a155.83,155.83,0,0,1,7.29-14.45q5.26-9.66,7.3-14.36,1.25-2.76,2.58-5.59a15.78,15.78,0,0,0,1.43-5.67c0-2.49-.62-3.73-1.87-3.73-.71,0-1.56.82-2.54,2.45s-1.88,3.19-2.71,4.67a1.77,1.77,0,0,0-.18.8,5.73,5.73,0,0,0,.49,1.69,6,6,0,0,1,.49,2,2.39,2.39,0,0,1-.71,1.65,2.26,2.26,0,0,1-1.69.75c-.84,0-2.44-1.12-4.81-3.38a3.69,3.69,0,0,1-1.16-2.85,11.12,11.12,0,0,1,1.6-5.07,18.1,18.1,0,0,1,11.75-9.25A7.1,7.1,0,0,1,491,10a5.1,5.1,0,0,1,5.34,3.74,18,18,0,0,1,.8,5.43,30,30,0,0,1-2.13,10.14q-2.15,4.81-4.19,9.61-1.16,2.67-4.53,8.73a52.49,52.49,0,0,0-4.28,8.9c.95.06,3.62.08,8,.08a31.48,31.48,0,0,1,7.92.81,3.24,3.24,0,0,1,2.5,3.47A2.5,2.5,0,0,1,500.21,62.08Z"/><path class="c" d="M520.68,53.27q.8,3.21-.31,4.32a3.93,3.93,0,0,1-3.25.93,5.25,5.25,0,0,1-3.38-1.6,4.4,4.4,0,0,1-1.61-3.2,2.92,2.92,0,0,1,.89-2,2.29,2.29,0,0,1,1.87-.84q1.7.09,3.39.27A2.91,2.91,0,0,1,520.68,53.27Z"/><path class="c" d="M554.76,33.6a23.81,23.81,0,0,1,.27,3.56A26.27,26.27,0,0,1,548.18,55c-3.68,4.22-7.3,6.2-10.86,6a9.62,9.62,0,0,1-7-3.74q-4-5-4-13a44.74,44.74,0,0,1,3.3-16.1q2.13-5.43,4.63-7.48a13,13,0,0,1,8.45-3,8.35,8.35,0,0,1,5.52,1.87,19.37,19.37,0,0,1,4.18,4.9A13.34,13.34,0,0,1,554,28.89C554.27,30.49,554.53,32.06,554.76,33.6Zm-7.38-.84c-.36-1.46-.66-2.89-.89-4.32A5.54,5.54,0,0,0,544.17,25a4.42,4.42,0,0,0-1.86-.71,2.72,2.72,0,0,0-1.7,1q-6.76,7-6.76,17.71a19.56,19.56,0,0,0,3,10.95,1.26,1.26,0,0,0,1.06.71c.54,0,1.57-.83,3.12-2.49q6.86-7.4,6.85-15A18.71,18.71,0,0,0,547.38,32.76Z"/></svg>