<svg xmlns="http://www.w3.org/2000/svg" width="193.16" height="74.42" viewBox="0 0 193.16 74.42"><defs><style>.a{fill:#004360;}.b{fill:#00334e;}.c{fill:#a0c4da;}.d{fill:#fff;}</style></defs><title>cb-cb-logo-bluebg</title><path class="a" d="M85.1,26.05a2.8,2.8,0,0,1,2.79,2.79,2.86,2.86,0,0,1-2.79,2.79H55.79a9.23,9.23,0,0,0-9.22,9.21V59.63a9.17,9.17,0,0,0,9.22,9.21H113a2.79,2.79,0,1,1,0,5.58H55.79A14.77,14.77,0,0,1,41,59.63V40.84a14.77,14.77,0,0,1,14.8-14.79Z"/><path class="a" d="M99.51,26.14h38a14.72,14.72,0,0,1,14.7,14.7V59.72a14.72,14.72,0,0,1-14.7,14.7H108.63a14.73,14.73,0,0,1-14.7-14.7V2.79A2.74,2.74,0,0,1,96.73,0a2.8,2.8,0,0,1,2.78,2.79Zm47.17,14.7a9.16,9.16,0,0,0-9.21-9.12h-38v28a9.14,9.14,0,0,0,9.12,9.12h28.84a9.15,9.15,0,0,0,9.21-9.12Z"/><path class="b" d="M10.65,45.45a.5.5,0,0,1,.5.5.51.51,0,0,1-.5.5h-7A1.64,1.64,0,0,0,2,48.09v3.34a1.63,1.63,0,0,0,1.63,1.64h7a.5.5,0,0,1,.5.5.49.49,0,0,1-.5.49h-7A2.63,2.63,0,0,1,1,51.43V48.09a2.64,2.64,0,0,1,2.63-2.64Z"/><path class="b" d="M3.63,55.06A3.63,3.63,0,0,1,0,51.43H0V48.08a3.64,3.64,0,0,1,3.63-3.63h7v0a1.5,1.5,0,0,1,1.5,1.5h0a1.51,1.51,0,0,1-1.5,1.5h-7a.64.64,0,0,0-.64.63H3v3.35a.64.64,0,0,0,.64.64h7a1.53,1.53,0,0,1,1.5,1.5h0a1.53,1.53,0,0,1-1.5,1.49h-7Z"/><path class="b" d="M13.17,53.58a.48.48,0,0,1-.48.48.47.47,0,0,1-.48-.48V41.3a.47.47,0,0,1,.48-.48.48.48,0,0,1,.48.48V46a2.57,2.57,0,0,1,1.59-.57h4.83A2.56,2.56,0,0,1,22.14,48v5.56a.47.47,0,0,1-.48.48.48.48,0,0,1-.48-.48V48a1.59,1.59,0,0,0-1.59-1.59H14.76A1.59,1.59,0,0,0,13.17,48Z"/><path class="b" d="M20.18,53.58V48a.58.58,0,0,0-.59-.59H14.76a.59.59,0,0,0-.59.59h0v5.56a1.48,1.48,0,0,1-1.48,1.48h0a1.48,1.48,0,0,1-1.48-1.48h0V41.3a1.48,1.48,0,0,1,1.48-1.48h0a1.48,1.48,0,0,1,1.48,1.48h0v3.2a3.81,3.81,0,0,1,.59,0h4.83A3.57,3.57,0,0,1,23.14,48h0v5.56a1.47,1.47,0,0,1-1.48,1.48h0a1.48,1.48,0,0,1-1.48-1.48Z"/><path class="b" d="M30.57,45.45A2.54,2.54,0,0,1,33.1,48a.47.47,0,1,1-.94,0,1.58,1.58,0,0,0-1.59-1.58H26.12A1.58,1.58,0,0,0,24.54,48v5.59a.47.47,0,0,1-.48.48.48.48,0,0,1-.48-.48V48a2.56,2.56,0,0,1,2.54-2.54Z"/><path class="b" d="M22.58,53.58V48a3.56,3.56,0,0,1,3.54-3.54h4.45v0A3.53,3.53,0,0,1,34.1,48h0a1.47,1.47,0,0,1-1.48,1.47h0A1.46,1.46,0,0,1,31.16,48h0a.58.58,0,0,0-.59-.58H26.12a.58.58,0,0,0-.58.58h0v5.59a1.48,1.48,0,0,1-1.48,1.48h0a1.48,1.48,0,0,1-1.48-1.48Z"/><path class="b" d="M34.13,43.81a.48.48,0,0,1,.5-.49.49.49,0,0,1,.49.49v.58a.51.51,0,0,1-.49.5.5.5,0,0,1-.5-.5Zm1,2.12v7.64a.49.49,0,0,1-.49.49.48.48,0,0,1-.5-.49V45.93a.48.48,0,0,1,.5-.48A.5.5,0,0,1,35.12,45.93Z"/><path class="b" d="M33.13,53.56V45.93a1.41,1.41,0,0,1,.22-.76h0a1.48,1.48,0,0,1-.22-.78h0v-.58a1.52,1.52,0,0,1,1.5-1.49h0a1.49,1.49,0,0,1,1.49,1.49h0v.58a1.65,1.65,0,0,1-.22.78h0a1.54,1.54,0,0,1,.22.76h0v7.63a1.5,1.5,0,0,1-1.49,1.5h0a1.52,1.52,0,0,1-1.5-1.5Z"/><path class="b" d="M46.46,45.45a.5.5,0,0,1,0,1h-7a1.44,1.44,0,1,0,0,2.81h4.93a2.57,2.57,0,0,1,2.73,2.39,2.6,2.6,0,0,1-2.73,2.41H37.24a.49.49,0,0,1,0-1h7.15a1.64,1.64,0,0,0,1.74-1.44,1.61,1.61,0,0,0-1.74-1.41H39.46a2.42,2.42,0,1,1,0-4.79Z"/><path class="b" d="M37.24,55.06a1.5,1.5,0,0,1-1.48-1.49h0a1.48,1.48,0,0,1,1.48-1.48h7.15a.89.89,0,0,0,.58-.21h0a.36.36,0,0,0,.16-.23h0s0-.11-.14-.22h0a1,1,0,0,0-.6-.19H39.46a3.58,3.58,0,0,1-3.73-3.38h0a3.59,3.59,0,0,1,3.73-3.41h7v0A1.51,1.51,0,0,1,48,46h0a1.51,1.51,0,0,1-1.5,1.5h-7a.93.93,0,0,0-.61.2h0c-.14.11-.15.19-.15.21h0s0,.09.15.2h0a1,1,0,0,0,.61.2h4.93a3.57,3.57,0,0,1,3.73,3.39h0a3.59,3.59,0,0,1-3.73,3.41H37.24Z"/><path class="b" d="M53,53.07a.5.5,0,0,1,.5.5.49.49,0,0,1-.5.49H51.25a2.62,2.62,0,0,1-2.62-2.61V41.31a.48.48,0,0,1,.5-.49.49.49,0,0,1,.49.49v4.13H53a.49.49,0,1,1,0,1H49.62v5a1.63,1.63,0,0,0,1.63,1.62Z"/><path class="b" d="M51.25,55.06a3.62,3.62,0,0,1-3.62-3.61h0V41.31a1.52,1.52,0,0,1,1.5-1.49h0a1.48,1.48,0,0,1,1.49,1.49h0v3.13H53a1.51,1.51,0,0,1,1.49,1.49h0A1.49,1.49,0,0,1,53,47.41H50.62v4a.63.63,0,0,0,.63.62H53v0a1.5,1.5,0,0,1,1.5,1.5h0A1.53,1.53,0,0,1,53,55.06H51.25Z"/><path class="b" d="M63.55,45.45a2.62,2.62,0,0,1,2.61,2.62v3.38a2.61,2.61,0,0,1-2.61,2.61H57.29a2.62,2.62,0,0,1-2.62-2.61V48.07a2.63,2.63,0,0,1,2.62-2.62Zm-7.89,6a1.63,1.63,0,0,0,1.63,1.62h6.26a1.63,1.63,0,0,0,1.62-1.62V48.07a1.63,1.63,0,0,0-1.62-1.62H57.29a1.63,1.63,0,0,0-1.63,1.62Z"/><path class="b" d="M57.29,55.06a3.62,3.62,0,0,1-3.62-3.61h0V48.07a3.63,3.63,0,0,1,3.62-3.62h6.25v0a3.62,3.62,0,0,1,3.62,3.62h0v3.38a3.62,3.62,0,0,1-3.62,3.61H57.29Zm0-3h6.25a.63.63,0,0,0,.63-.62h0V48.07a.63.63,0,0,0-.63-.62H57.29a.63.63,0,0,0-.63.62h0v3.38a.63.63,0,0,0,.63.62Z"/><path class="b" d="M67.87,58.7a.49.49,0,0,1-.5-.5V48.07A2.63,2.63,0,0,1,70,45.45h5.08a2.62,2.62,0,0,1,2.61,2.62v3.36a2.62,2.62,0,0,1-2.61,2.62H68.36V58.2A.5.5,0,0,1,67.87,58.7Zm8.84-10.63a1.63,1.63,0,0,0-1.64-1.62H70a1.63,1.63,0,0,0-1.63,1.62v5h6.71a1.63,1.63,0,0,0,1.64-1.62Z"/><path class="b" d="M66.37,58.2V48.07A3.62,3.62,0,0,1,70,44.45h5.08a3.63,3.63,0,0,1,3.62,3.62h0v3.36a3.64,3.64,0,0,1-3.62,3.62H69.36V58.2h0a1.5,1.5,0,0,1-1.49,1.5h0v0a1.52,1.52,0,0,1-1.5-1.5Zm8.7-6.15a.63.63,0,0,0,.64-.62h0V48.07a.63.63,0,0,0-.64-.62H70a.63.63,0,0,0-.63.62h0v4h5.71Z"/><path class="b" d="M80,53.58a.47.47,0,0,1-.47.48.48.48,0,0,1-.49-.48V41.3a.48.48,0,0,1,.49-.48.47.47,0,0,1,.47.48V46a2.6,2.6,0,0,1,1.59-.57h4.84A2.56,2.56,0,0,1,89,48v5.56a.48.48,0,0,1-.48.48.47.47,0,0,1-.48-.48V48a1.59,1.59,0,0,0-1.59-1.59H81.62A1.59,1.59,0,0,0,80,48Z"/><path class="b" d="M87.05,53.58V48a.59.59,0,0,0-.59-.59H81.62A.6.6,0,0,0,81,48h0v5.56h0a1.47,1.47,0,0,1-1.47,1.48h0a1.49,1.49,0,0,1-1.49-1.48h0V41.3a1.49,1.49,0,0,1,1.49-1.48h0A1.47,1.47,0,0,1,81,41.3h0v3.2a3.92,3.92,0,0,1,.59,0h4.84A3.57,3.57,0,0,1,90,48h0v5.56a1.48,1.48,0,0,1-1.48,1.48h0a1.48,1.48,0,0,1-1.48-1.48Z"/><path class="b" d="M98.16,45.45a2.6,2.6,0,0,1,2.6,2.6V50a.48.48,0,0,1-.5.49H91.42v1a1.63,1.63,0,0,0,1.63,1.63H100a.49.49,0,1,1,0,1h-6.9a2.59,2.59,0,0,1-2.6-2.6V48.05a2.59,2.59,0,0,1,2.6-2.6Zm-6.74,4h8.37V48.05a1.63,1.63,0,0,0-1.63-1.62H93.05a1.63,1.63,0,0,0-1.63,1.62Z"/><path class="b" d="M93.05,55.06a3.6,3.6,0,0,1-3.6-3.6h0V48.05a3.6,3.6,0,0,1,3.6-3.6h5.11v0a3.6,3.6,0,0,1,3.6,3.6h0V50a1.52,1.52,0,0,1-1.5,1.5H92.42a.65.65,0,0,0,.63.63H100a1.48,1.48,0,0,1,1.5,1.48h0a1.5,1.5,0,0,1-1.5,1.49h-6.9Zm5.73-6.59v-.42h0a.62.62,0,0,0-.62-.62H93.05a.63.63,0,0,0-.63.62h0v.42h6.36Z"/><path class="b" d="M109,45.45A2.54,2.54,0,0,1,111.52,48a.47.47,0,1,1-.94,0A1.58,1.58,0,0,0,109,46.41h-4.45A1.58,1.58,0,0,0,103,48v5.59a.47.47,0,0,1-.48.48.48.48,0,0,1-.48-.48V48a2.55,2.55,0,0,1,2.54-2.54Z"/><path class="b" d="M101,53.58V48a3.56,3.56,0,0,1,3.54-3.54H109v0A3.54,3.54,0,0,1,112.52,48h0A1.47,1.47,0,0,1,111,49.46h0A1.46,1.46,0,0,1,109.58,48h0a.59.59,0,0,0-.59-.58h-4.45A.57.57,0,0,0,104,48h0v5.59a1.48,1.48,0,0,1-1.48,1.48h0A1.48,1.48,0,0,1,101,53.58Z"/><path class="b" d="M113.56,45.47h6.75a2.63,2.63,0,0,1,2.62,2.62v3.36a2.62,2.62,0,0,1-2.62,2.61h-5.13a2.62,2.62,0,0,1-2.62-2.61V41.31a.49.49,0,0,1,.5-.49.49.49,0,0,1,.5.49ZM122,48.09a1.63,1.63,0,0,0-1.64-1.63h-6.75v5a1.63,1.63,0,0,0,1.62,1.62h5.13A1.63,1.63,0,0,0,122,51.45Z"/><path class="b" d="M115.18,55.06a3.62,3.62,0,0,1-3.62-3.61h0V41.31a1.52,1.52,0,0,1,1.5-1.49h0a1.5,1.5,0,0,1,1.5,1.49h0v3.16h5.75a3.62,3.62,0,0,1,3.62,3.61h0v3.37a3.62,3.62,0,0,1-3.62,3.61h-5.13Zm-.62-3.61a.62.62,0,0,0,.62.62h5.13a.63.63,0,0,0,.64-.62h0V48.08a.63.63,0,0,0-.64-.62h-5.75v4Z"/><path class="b" d="M133.51,45.45a2.62,2.62,0,0,1,2.61,2.62v3.38a2.61,2.61,0,0,1-2.61,2.61h-6.26a2.62,2.62,0,0,1-2.62-2.61V48.07a2.63,2.63,0,0,1,2.62-2.62Zm-7.88,6a1.63,1.63,0,0,0,1.62,1.62h6.26a1.63,1.63,0,0,0,1.62-1.62V48.07a1.63,1.63,0,0,0-1.62-1.62h-6.26a1.63,1.63,0,0,0-1.62,1.62Z"/><path class="b" d="M127.25,55.06a3.62,3.62,0,0,1-3.62-3.61h0V48.07a3.63,3.63,0,0,1,3.62-3.62h6.26v0a3.62,3.62,0,0,1,3.61,3.62h0v3.38a3.61,3.61,0,0,1-3.61,3.61h-6.26Zm0-3h6.26a.63.63,0,0,0,.62-.62h0V48.07a.63.63,0,0,0-.62-.62h-6.26a.62.62,0,0,0-.62.62h0v3.38a.62.62,0,0,0,.62.62Z"/><path class="b" d="M137.61,41.31a.48.48,0,0,1,.49-.49.49.49,0,0,1,.5.49V51.45a1.63,1.63,0,0,0,1.62,1.62h1.64a.5.5,0,1,1,0,1h-1.64a2.61,2.61,0,0,1-2.61-2.61Z"/><path class="b" d="M140.22,55.06a3.61,3.61,0,0,1-3.61-3.61h0V41.31a1.52,1.52,0,0,1,1.49-1.49h0a1.5,1.5,0,0,1,1.5,1.49h0V51.45a.62.62,0,0,0,.62.62h1.64a1.5,1.5,0,0,1,1.5,1.49h0a1.5,1.5,0,0,1-1.5,1.5h-1.64Z"/><path class="b" d="M147.73,53.07a.5.5,0,0,1,.5.5.49.49,0,0,1-.5.49H146a2.61,2.61,0,0,1-2.61-2.61V41.31a.48.48,0,0,1,.49-.49.49.49,0,0,1,.5.49v4.13h3.36a.49.49,0,1,1,0,1h-3.36v5A1.63,1.63,0,0,0,146,53.07Z"/><path class="b" d="M146,55.06a3.61,3.61,0,0,1-3.61-3.61h0V41.31a1.51,1.51,0,0,1,1.49-1.49h0a1.5,1.5,0,0,1,1.5,1.49h0v3.13h2.36a1.52,1.52,0,0,1,1.5,1.49h0a1.5,1.5,0,0,1-1.5,1.48h-2.36v4a.62.62,0,0,0,.62.62h1.76v0a1.5,1.5,0,0,1,1.5,1.49h0a1.53,1.53,0,0,1-1.5,1.5H146Z"/><path class="b" d="M149.42,53a.48.48,0,0,1,.5-.49.49.49,0,0,1,.49.49v.58a.51.51,0,0,1-.49.5.5.5,0,0,1-.5-.5Z"/><path class="b" d="M148.42,53.58V53a1.52,1.52,0,0,1,1.5-1.49h0A1.49,1.49,0,0,1,151.41,53h0v.58a1.5,1.5,0,0,1-1.49,1.5h0a1.5,1.5,0,0,1-1.5-1.5Z"/><path class="b" d="M161.64,45.45a.5.5,0,0,1,.49.5.51.51,0,0,1-.49.5h-7A1.64,1.64,0,0,0,153,48.09v3.34a1.63,1.63,0,0,0,1.64,1.64h7a.5.5,0,0,1,.5.5.49.49,0,0,1-.5.49h-7A2.63,2.63,0,0,1,152,51.43V48.09a2.64,2.64,0,0,1,2.64-2.64Z"/><path class="b" d="M154.62,55.06A3.64,3.64,0,0,1,151,51.43h0V48.09a3.65,3.65,0,0,1,3.64-3.64h7v0a1.5,1.5,0,0,1,1.49,1.5h0a1.5,1.5,0,0,1-1.49,1.5h-7a.64.64,0,0,0-.64.64h0v3.34a.63.63,0,0,0,.64.64h7a1.52,1.52,0,0,1,1.5,1.49h0a1.52,1.52,0,0,1-1.5,1.5h-7Z"/><path class="b" d="M172.07,45.45a2.62,2.62,0,0,1,2.61,2.62v3.38a2.61,2.61,0,0,1-2.61,2.61h-6.26a2.62,2.62,0,0,1-2.62-2.61V48.07a2.63,2.63,0,0,1,2.62-2.62Zm-7.88,6a1.62,1.62,0,0,0,1.62,1.62h6.26a1.63,1.63,0,0,0,1.62-1.62V48.07a1.63,1.63,0,0,0-1.62-1.62h-6.26a1.62,1.62,0,0,0-1.62,1.62Z"/><path class="b" d="M165.81,55.06a3.62,3.62,0,0,1-3.62-3.61h0V48.07a3.62,3.62,0,0,1,3.62-3.62h6.26v0a3.62,3.62,0,0,1,3.61,3.62h0v3.38a3.61,3.61,0,0,1-3.61,3.61h-6.26Zm-.62-3.61a.62.62,0,0,0,.62.62h6.26a.64.64,0,0,0,.62-.62h0V48.07a.62.62,0,0,0-.61-.62h-6.26a.64.64,0,0,0-.63.62h0v3.38Z"/><path class="b" d="M189.5,45.45a2.68,2.68,0,0,1,2.66,2.68v5.45a.5.5,0,0,1-1,0V48.13a1.62,1.62,0,0,0-1.67-1.63h-3.45a1.61,1.61,0,0,0-1.59,1.63v5.45a.54.54,0,0,1-.48.47h-.08a.48.48,0,0,1-.49-.48V48.13a1.62,1.62,0,0,0-1.63-1.63h-3.31a1.62,1.62,0,0,0-1.61,1.63v5.45a.5.5,0,0,1-.51.48.48.48,0,0,1-.48-.48V48.13a2.67,2.67,0,0,1,2.6-2.68h3.31a2.6,2.6,0,0,1,2.12,1.15,2.83,2.83,0,0,1,2.15-1.15Z"/><path class="b" d="M184,55.06s-.05,0-.06,0h0a1.5,1.5,0,0,1-1.5-1.48h0V48.14a.6.6,0,0,0-.62-.64h-3.31a.63.63,0,0,0-.61.64h0v5.44a1.49,1.49,0,0,1-1.51,1.48h0a1.48,1.48,0,0,1-1.48-1.48h0V48.14a3.68,3.68,0,0,1,3.6-3.69h3.31a3.47,3.47,0,0,1,2.14.75h0a3.55,3.55,0,0,1,2.13-.75h3.45v0a3.68,3.68,0,0,1,3.66,3.69h0v5.44a1.49,1.49,0,0,1-1.49,1.48h0a1.49,1.49,0,0,1-1.5-1.48h0V48.14a.62.62,0,0,0-.67-.64h-3.45a.62.62,0,0,0-.59.64h0v5.44A1.47,1.47,0,0,1,184.3,55h0a.59.59,0,0,1-.27.07H184Z"/><path class="c" d="M10.65,45.45a.5.5,0,0,1,.5.5.51.51,0,0,1-.5.5h-7A1.65,1.65,0,0,0,2,48.09v3.34a1.63,1.63,0,0,0,1.64,1.64h7a.5.5,0,0,1,.5.5.49.49,0,0,1-.5.49h-7A2.63,2.63,0,0,1,1,51.43V48.09a2.64,2.64,0,0,1,2.63-2.64Z"/><path class="c" d="M13.17,53.58a.48.48,0,0,1-.48.48.47.47,0,0,1-.48-.48V41.3a.47.47,0,0,1,.48-.48.48.48,0,0,1,.48.48V46a2.57,2.57,0,0,1,1.59-.57h4.83A2.56,2.56,0,0,1,22.14,48v5.56a.47.47,0,0,1-.48.48.48.48,0,0,1-.48-.48V48a1.59,1.59,0,0,0-1.59-1.59H14.76A1.59,1.59,0,0,0,13.17,48Z"/><path class="c" d="M30.57,45.45A2.54,2.54,0,0,1,33.1,48a.47.47,0,1,1-.94,0,1.58,1.58,0,0,0-1.59-1.58H26.12A1.58,1.58,0,0,0,24.54,48v5.59a.47.47,0,0,1-.48.48.48.48,0,0,1-.48-.48V48a2.55,2.55,0,0,1,2.54-2.54Z"/><path class="c" d="M34.13,43.81a.48.48,0,0,1,.49-.49.49.49,0,0,1,.5.49v.58a.51.51,0,0,1-.5.5.49.49,0,0,1-.49-.5Zm1,2.12v7.64a.49.49,0,0,1-.5.49.48.48,0,0,1-.49-.49V45.93a.48.48,0,0,1,.49-.48A.5.5,0,0,1,35.12,45.93Z"/><path class="c" d="M46.46,45.45a.5.5,0,0,1,0,1h-7a1.44,1.44,0,1,0,0,2.81h4.93a2.57,2.57,0,0,1,2.73,2.39,2.6,2.6,0,0,1-2.73,2.41H37.24a.49.49,0,0,1,0-1h7.15a1.64,1.64,0,0,0,1.74-1.44,1.61,1.61,0,0,0-1.74-1.41H39.46a2.42,2.42,0,1,1,0-4.79Z"/><path class="c" d="M53,53.07a.5.5,0,0,1,.5.5.49.49,0,0,1-.5.49H51.25a2.61,2.61,0,0,1-2.62-2.61V41.31a.48.48,0,0,1,.5-.49.49.49,0,0,1,.49.49v4.13H53a.49.49,0,1,1,0,1H49.62v5a1.63,1.63,0,0,0,1.63,1.62Z"/><path class="c" d="M63.55,45.45a2.62,2.62,0,0,1,2.61,2.62v3.38a2.61,2.61,0,0,1-2.61,2.61H57.29a2.62,2.62,0,0,1-2.62-2.61V48.07a2.63,2.63,0,0,1,2.62-2.62Zm-7.89,6a1.63,1.63,0,0,0,1.63,1.62h6.26a1.63,1.63,0,0,0,1.62-1.62V48.07a1.63,1.63,0,0,0-1.62-1.62H57.29a1.63,1.63,0,0,0-1.63,1.62Z"/><path class="c" d="M67.87,58.7a.49.49,0,0,1-.5-.5V48.07A2.63,2.63,0,0,1,70,45.45h5.08a2.62,2.62,0,0,1,2.61,2.62v3.36a2.62,2.62,0,0,1-2.61,2.62H68.36V58.2A.5.5,0,0,1,67.87,58.7Zm8.84-10.63a1.63,1.63,0,0,0-1.64-1.62H70a1.63,1.63,0,0,0-1.63,1.62v5h6.71a1.63,1.63,0,0,0,1.64-1.62Z"/><path class="c" d="M80,53.58a.47.47,0,0,1-.47.48.48.48,0,0,1-.49-.48V41.3a.48.48,0,0,1,.49-.48.47.47,0,0,1,.47.48V46a2.6,2.6,0,0,1,1.59-.57h4.84A2.56,2.56,0,0,1,89,48v5.56a.48.48,0,0,1-.48.48.47.47,0,0,1-.48-.48V48a1.59,1.59,0,0,0-1.59-1.59H81.62A1.59,1.59,0,0,0,80,48Z"/><path class="c" d="M98.16,45.45a2.6,2.6,0,0,1,2.6,2.6V50a.48.48,0,0,1-.5.49H91.42v1a1.63,1.63,0,0,0,1.63,1.63H100a.49.49,0,1,1,0,1h-6.9a2.59,2.59,0,0,1-2.6-2.6V48.05a2.59,2.59,0,0,1,2.6-2.6Zm-6.74,4h8.37V48.05a1.63,1.63,0,0,0-1.63-1.62H93.05a1.63,1.63,0,0,0-1.63,1.62Z"/><path class="c" d="M109,45.45A2.54,2.54,0,0,1,111.52,48a.47.47,0,1,1-.94,0A1.58,1.58,0,0,0,109,46.41h-4.45A1.58,1.58,0,0,0,103,48v5.59a.47.47,0,0,1-.48.48.48.48,0,0,1-.48-.48V48a2.55,2.55,0,0,1,2.54-2.54Z"/><path class="d" d="M113.56,45.47h6.75a2.63,2.63,0,0,1,2.62,2.62v3.36a2.62,2.62,0,0,1-2.62,2.61h-5.13a2.62,2.62,0,0,1-2.62-2.61V41.31a.49.49,0,0,1,.5-.49.49.49,0,0,1,.5.49ZM122,48.09a1.63,1.63,0,0,0-1.64-1.63h-6.75v5a1.63,1.63,0,0,0,1.62,1.62h5.13A1.63,1.63,0,0,0,122,51.45Z"/><path class="d" d="M133.51,45.45a2.62,2.62,0,0,1,2.61,2.62v3.38a2.61,2.61,0,0,1-2.61,2.61h-6.26a2.62,2.62,0,0,1-2.62-2.61V48.07a2.63,2.63,0,0,1,2.62-2.62Zm-7.88,6a1.63,1.63,0,0,0,1.62,1.62h6.26a1.63,1.63,0,0,0,1.62-1.62V48.07a1.63,1.63,0,0,0-1.62-1.62h-6.26a1.63,1.63,0,0,0-1.62,1.62Z"/><path class="d" d="M137.61,41.31a.48.48,0,0,1,.49-.49.49.49,0,0,1,.5.49V51.45a1.63,1.63,0,0,0,1.62,1.62h1.64a.5.5,0,1,1,0,1h-1.64a2.61,2.61,0,0,1-2.61-2.61Z"/><path class="d" d="M147.73,53.07a.5.5,0,0,1,.5.5.49.49,0,0,1-.5.49H146a2.61,2.61,0,0,1-2.61-2.61V41.31a.48.48,0,0,1,.49-.49.49.49,0,0,1,.5.49v4.13h3.36a.49.49,0,1,1,0,1h-3.36v5A1.63,1.63,0,0,0,146,53.07Z"/><path class="d" d="M149.42,53a.48.48,0,0,1,.49-.49.49.49,0,0,1,.5.49v.58a.51.51,0,0,1-.5.5.49.49,0,0,1-.49-.5Z"/><path class="c" d="M161.64,45.45a.5.5,0,0,1,.49.5.51.51,0,0,1-.49.5h-7A1.64,1.64,0,0,0,153,48.09v3.34a1.63,1.63,0,0,0,1.64,1.64h7a.5.5,0,0,1,.5.5.49.49,0,0,1-.5.49h-7A2.63,2.63,0,0,1,152,51.43V48.09a2.64,2.64,0,0,1,2.64-2.64Z"/><path class="c" d="M172.06,45.45a2.63,2.63,0,0,1,2.62,2.62v3.38a2.62,2.62,0,0,1-2.62,2.61h-6.25a2.62,2.62,0,0,1-2.62-2.61V48.07a2.63,2.63,0,0,1,2.62-2.62Zm-7.88,6a1.63,1.63,0,0,0,1.63,1.62h6.25a1.63,1.63,0,0,0,1.63-1.62V48.07a1.63,1.63,0,0,0-1.63-1.62h-6.25a1.63,1.63,0,0,0-1.63,1.62Z"/><path class="c" d="M189.5,45.45a2.68,2.68,0,0,1,2.66,2.68v5.45a.5.5,0,0,1-1,0V48.13a1.62,1.62,0,0,0-1.67-1.63h-3.45a1.61,1.61,0,0,0-1.59,1.63v5.45a.54.54,0,0,1-.48.47h-.08a.48.48,0,0,1-.5-.48V48.13a1.61,1.61,0,0,0-1.62-1.63h-3.31a1.62,1.62,0,0,0-1.61,1.63v5.45a.5.5,0,0,1-.51.48.48.48,0,0,1-.48-.48V48.13a2.67,2.67,0,0,1,2.6-2.68h3.31a2.6,2.6,0,0,1,2.12,1.15,2.83,2.83,0,0,1,2.15-1.15Z"/></svg>