<svg xmlns="http://www.w3.org/2000/svg" width="1154.69" height="108.01" viewBox="0 0 1154.69 108.01"><defs><style>.a{fill:#9fc3da;}.b{fill:#fff;}</style></defs><title>cb-logo-bluebg</title><path class="a" d="M58.3,28a3,3,0,0,1,3,3,3.08,3.08,0,0,1-3,3H15.9A9.92,9.92,0,0,0,6,43.9V64.1A9.86,9.86,0,0,0,15.9,74H58.1a3,3,0,0,1,0,6H15.9A15.88,15.88,0,0,1,0,64.1V43.9A15.88,15.88,0,0,1,15.9,28Z"/><path class="a" d="M73.5,77.1a2.9,2.9,0,0,1-5.8,0V2.9a2.9,2.9,0,0,1,5.8,0V31.4A15.59,15.59,0,0,1,83.1,28h29.2a15.49,15.49,0,0,1,15.4,15.5V77.1a2.9,2.9,0,0,1-5.8,0V43.5a9.6,9.6,0,0,0-9.6-9.6H83.1a9.6,9.6,0,0,0-9.6,9.6Z"/><path class="a" d="M178.6,28a15.3,15.3,0,0,1,15.3,15.3,2.85,2.85,0,1,1-5.7,0,9.52,9.52,0,0,0-9.6-9.5H151.7a9.5,9.5,0,0,0-9.5,9.5V77.1a2.9,2.9,0,1,1-5.8,0V43.3A15.36,15.36,0,0,1,151.7,28Z"/><path class="a" d="M200.1,18.1a3,3,0,0,1,3-3,3,3,0,0,1,3,3v3.5a3.08,3.08,0,0,1-3,3,3,3,0,0,1-3-3Zm6,12.8V77a3,3,0,0,1-3,3,2.94,2.94,0,0,1-3-3V30.9a2.93,2.93,0,0,1,3-2.9A3,3,0,0,1,206.1,30.9Z"/><path class="a" d="M274.6,28a3,3,0,0,1,0,6H232.3c-5.7,0-10.6,3.9-10.6,8.5s4.9,8.5,10.6,8.5h29.8c9.1,0,16.5,6.4,16.5,14.4S271.2,80,262.1,80H218.9a3,3,0,0,1,0-5.9h43.2c5.7,0,10.5-4.1,10.5-8.7s-4.8-8.5-10.5-8.5H232.3c-9.1,0-16.5-6.5-16.5-14.4S223.2,28,232.3,28Z"/><path class="a" d="M314.1,74a3,3,0,0,1,3,3,2.94,2.94,0,0,1-3,3H303.5a15.83,15.83,0,0,1-15.8-15.8V3a3,3,0,0,1,3-3,3,3,0,0,1,3,3V27.9H314a3,3,0,1,1,0,5.9H293.7V64.2a9.82,9.82,0,0,0,9.8,9.8Z"/><path class="a" d="M377.8,28a15.83,15.83,0,0,1,15.8,15.8V64.2A15.83,15.83,0,0,1,377.8,80H340a15.83,15.83,0,0,1-15.8-15.8V43.8A15.83,15.83,0,0,1,340,28ZM330.2,64.2A9.82,9.82,0,0,0,340,74h37.8a9.82,9.82,0,0,0,9.8-9.8V43.8a9.82,9.82,0,0,0-9.8-9.8H340a9.82,9.82,0,0,0-9.8,9.8Z"/><path class="a" d="M403.9,108a3,3,0,0,1-3-3V43.8A15.84,15.84,0,0,1,416.7,28h30.7a15.83,15.83,0,0,1,15.8,15.8V64.1a15.83,15.83,0,0,1-15.8,15.8H406.9V105A3,3,0,0,1,403.9,108ZM457.3,43.8a9.84,9.84,0,0,0-9.9-9.8H416.7a9.82,9.82,0,0,0-9.8,9.8V73.9h40.5a9.84,9.84,0,0,0,9.9-9.8Z"/><path class="a" d="M477.39,77.1a2.9,2.9,0,1,1-5.8,0V2.9a2.9,2.9,0,1,1,5.8,0V31.4A15.6,15.6,0,0,1,487,28h29.2a15.49,15.49,0,0,1,15.4,15.5V77.1a2.9,2.9,0,1,1-5.8,0V43.5a9.6,9.6,0,0,0-9.6-9.6H487a9.6,9.6,0,0,0-9.61,9.6Z"/><path class="a" d="M586.9,28a15.73,15.73,0,0,1,15.7,15.7V55.2a3,3,0,0,1-3,3H546.19v6.1A9.82,9.82,0,0,0,556,74.1h41.7a3,3,0,1,1,0,5.9H556a15.67,15.67,0,0,1-15.71-15.7V43.7A15.67,15.67,0,0,1,556,28ZM546.19,52.3H596.7V43.7a9.82,9.82,0,0,0-9.8-9.8H556a9.82,9.82,0,0,0-9.81,9.8Z"/><path class="a" d="M652.3,28a15.3,15.3,0,0,1,15.3,15.3,2.85,2.85,0,1,1-5.7,0,9.52,9.52,0,0,0-9.6-9.5H625.39a9.5,9.5,0,0,0-9.5,9.5V77.1a2.9,2.9,0,0,1-5.8,0V43.3A15.36,15.36,0,0,1,625.39,28Z"/><path class="b" d="M679.89,28.1H720.7a15.83,15.83,0,0,1,15.8,15.8V64.2A15.83,15.83,0,0,1,720.7,80h-31a15.83,15.83,0,0,1-15.8-15.8V3a3,3,0,0,1,3-3,3,3,0,0,1,3,3ZM730.6,43.9a9.84,9.84,0,0,0-9.9-9.8H679.89V64.2a9.82,9.82,0,0,0,9.8,9.8h31a9.84,9.84,0,0,0,9.9-9.8Z"/><path class="b" d="M800.4,28a15.83,15.83,0,0,1,15.8,15.8V64.2A15.83,15.83,0,0,1,800.4,80H762.59a15.83,15.83,0,0,1-15.8-15.8V43.8A15.83,15.83,0,0,1,762.59,28ZM752.79,64.2a9.82,9.82,0,0,0,9.8,9.8H800.4a9.82,9.82,0,0,0,9.8-9.8V43.8a9.82,9.82,0,0,0-9.8-9.8H762.59a9.82,9.82,0,0,0-9.8,9.8Z"/><path class="b" d="M823.39,3a3,3,0,0,1,3-3,3,3,0,0,1,3,3V64.2a9.82,9.82,0,0,0,9.8,9.8h9.9a3,3,0,0,1,0,6h-9.9a15.83,15.83,0,0,1-15.8-15.8Z"/><path class="b" d="M886.29,74a3,3,0,0,1,3,3,2.94,2.94,0,0,1-3,3h-10.6a15.83,15.83,0,0,1-15.8-15.8V3a3,3,0,0,1,3-3,3,3,0,0,1,3,3V27.9h20.3a3,3,0,1,1,0,5.9h-20.3V64.2a9.82,9.82,0,0,0,9.8,9.8Z"/><path class="a" d="M896.49,73.6a3,3,0,0,1,3-3,3,3,0,0,1,3,3v3.5a3.07,3.07,0,0,1-3,3,3,3,0,0,1-3-3Z"/><path class="a" d="M970.29,28a3,3,0,0,1,3,3,3.08,3.08,0,0,1-3,3h-42.4a9.92,9.92,0,0,0-9.9,9.9V64.1a9.86,9.86,0,0,0,9.9,9.9h42.2a3,3,0,1,1,0,6h-42.2A15.88,15.88,0,0,1,912,64.1V43.9A15.88,15.88,0,0,1,927.89,28Z"/><path class="a" d="M1033.29,28a15.83,15.83,0,0,1,15.8,15.8V64.2a15.83,15.83,0,0,1-15.8,15.8h-37.8a15.83,15.83,0,0,1-15.8-15.8V43.8A15.83,15.83,0,0,1,995.49,28Zm-47.6,36.2a9.82,9.82,0,0,0,9.8,9.8h37.8a9.82,9.82,0,0,0,9.8-9.8V43.8a9.82,9.82,0,0,0-9.8-9.8h-37.8a9.82,9.82,0,0,0-9.8,9.8Z"/><path class="a" d="M1138.59,28a16.17,16.17,0,0,1,16.1,16.2V77.1a3,3,0,0,1-6,0V44.2a9.84,9.84,0,0,0-10.1-9.9h-20.8a9.73,9.73,0,0,0-9.6,9.9V77.1a3.19,3.19,0,0,1-2.9,2.8.75.75,0,0,1-.5.1,2.92,2.92,0,0,1-3-2.9V44.2a9.77,9.77,0,0,0-9.8-9.9h-20a9.82,9.82,0,0,0-9.7,9.9V77.1a3.07,3.07,0,0,1-3.1,2.9,2.9,2.9,0,0,1-2.9-2.9V44.2c0-8.8,7.1-16.2,15.7-16.2h20a15.85,15.85,0,0,1,12.8,6.9c3.3-4,7.8-6.9,13-6.9Z"/></svg>