<svg xmlns="http://www.w3.org/2000/svg" width="1167.71" height="185.24" viewBox="0 0 1167.71 185.24"><defs><style>.a{fill:#9fc3da;}.b{fill:#fff;}.c{opacity:0.6;}</style></defs><title>cb-support-logo-bluebg</title><path class="a" d="M58.3,38a3,3,0,0,1,3,3,3.08,3.08,0,0,1-3,3H15.9A9.92,9.92,0,0,0,6,53.85v20.2A9.86,9.86,0,0,0,15.9,84H58.1a3,3,0,1,1,0,6H15.9A15.88,15.88,0,0,1,0,74.05V53.85A15.88,15.88,0,0,1,15.9,38Z" transform="translate(0 -9.94)"/><path class="a" d="M73.5,87.05a2.9,2.9,0,0,1-5.8,0V12.84a2.9,2.9,0,0,1,5.8,0V41.35A15.59,15.59,0,0,1,83.1,38h29.2a15.49,15.49,0,0,1,15.4,15.5v33.6a2.9,2.9,0,0,1-5.8,0V53.45a9.6,9.6,0,0,0-9.6-9.6H83.1a9.6,9.6,0,0,0-9.6,9.6Z" transform="translate(0 -9.94)"/><path class="a" d="M178.6,38a15.3,15.3,0,0,1,15.3,15.3,2.85,2.85,0,1,1-5.7,0,9.52,9.52,0,0,0-9.6-9.5H151.7a9.5,9.5,0,0,0-9.5,9.5v33.8a2.9,2.9,0,1,1-5.8,0V53.25A15.36,15.36,0,0,1,151.7,38Z" transform="translate(0 -9.94)"/><path class="a" d="M200.1,28.05a3,3,0,0,1,3-3,3,3,0,0,1,3,3v3.5a3.08,3.08,0,0,1-3,3,3,3,0,0,1-3-3Zm6,12.8V87a3,3,0,0,1-3,3,3,3,0,0,1-3-3V40.85a2.93,2.93,0,0,1,3-2.9A3,3,0,0,1,206.1,40.85Z" transform="translate(0 -9.94)"/><path class="a" d="M274.6,38a3,3,0,0,1,0,6H232.3c-5.7,0-10.6,3.9-10.6,8.5s4.9,8.5,10.6,8.5h29.8c9.1,0,16.5,6.4,16.5,14.4S271.2,90,262.1,90H218.9a3,3,0,0,1,0-5.9h43.2c5.7,0,10.5-4.1,10.5-8.7s-4.8-8.5-10.5-8.5H232.3c-9.1,0-16.5-6.5-16.5-14.4S223.2,38,232.3,38Z" transform="translate(0 -9.94)"/><path class="a" d="M314.1,84a3,3,0,0,1,3,3,3,3,0,0,1-3,3H303.5a15.83,15.83,0,0,1-15.8-15.8V13a3,3,0,0,1,3-3,3,3,0,0,1,3,3v24.9H314a3,3,0,1,1,0,5.9H293.7v30.4a9.82,9.82,0,0,0,9.8,9.8Z" transform="translate(0 -9.94)"/><path class="a" d="M377.8,38a15.83,15.83,0,0,1,15.8,15.8v20.4A15.83,15.83,0,0,1,377.8,90H340a15.83,15.83,0,0,1-15.8-15.8V53.75A15.83,15.83,0,0,1,340,38Zm-47.6,36.2A9.82,9.82,0,0,0,340,84h37.8a9.82,9.82,0,0,0,9.8-9.8V53.75a9.82,9.82,0,0,0-9.8-9.8H340a9.82,9.82,0,0,0-9.8,9.8Z" transform="translate(0 -9.94)"/><path class="a" d="M403.9,118a3,3,0,0,1-3-3V53.75A15.84,15.84,0,0,1,416.7,38h30.7a15.83,15.83,0,0,1,15.8,15.8v20.3a15.83,15.83,0,0,1-15.8,15.8H406.9V115A3,3,0,0,1,403.9,118Zm53.4-64.2a9.84,9.84,0,0,0-9.9-9.8H416.7a9.82,9.82,0,0,0-9.8,9.8v30.1h40.5a9.84,9.84,0,0,0,9.9-9.8Z" transform="translate(0 -9.94)"/><path class="a" d="M477.39,87.05a2.9,2.9,0,1,1-5.8,0V12.84a2.9,2.9,0,1,1,5.8,0V41.35A15.6,15.6,0,0,1,487,38h29.2a15.49,15.49,0,0,1,15.4,15.5v33.6a2.9,2.9,0,1,1-5.8,0V53.45a9.6,9.6,0,0,0-9.6-9.6H487a9.6,9.6,0,0,0-9.61,9.6Z" transform="translate(0 -9.94)"/><path class="a" d="M586.9,38a15.73,15.73,0,0,1,15.7,15.7v11.5a3,3,0,0,1-3,3H546.19v6.1a9.82,9.82,0,0,0,9.81,9.8h41.7a3,3,0,1,1,0,5.9H556a15.67,15.67,0,0,1-15.71-15.7V53.65A15.67,15.67,0,0,1,556,38Zm-40.71,24.3H596.7v-8.6a9.82,9.82,0,0,0-9.8-9.8H556a9.82,9.82,0,0,0-9.81,9.8Z" transform="translate(0 -9.94)"/><path class="a" d="M652.3,38a15.3,15.3,0,0,1,15.3,15.3,2.85,2.85,0,1,1-5.7,0,9.52,9.52,0,0,0-9.6-9.5H625.39a9.5,9.5,0,0,0-9.5,9.5v33.8a2.9,2.9,0,0,1-5.8,0V53.25A15.36,15.36,0,0,1,625.39,38Z" transform="translate(0 -9.94)"/><path class="b" d="M679.89,38.05H720.7a15.83,15.83,0,0,1,15.8,15.8v20.3A15.83,15.83,0,0,1,720.7,90h-31a15.83,15.83,0,0,1-15.8-15.8V13a3,3,0,0,1,3-3,3,3,0,0,1,3,3Zm50.71,15.8a9.84,9.84,0,0,0-9.9-9.8H679.89v30.1a9.82,9.82,0,0,0,9.8,9.8h31a9.84,9.84,0,0,0,9.9-9.8Z" transform="translate(0 -9.94)"/><path class="b" d="M800.4,38a15.83,15.83,0,0,1,15.8,15.8v20.4A15.83,15.83,0,0,1,800.4,90H762.59a15.83,15.83,0,0,1-15.8-15.8V53.75A15.83,15.83,0,0,1,762.59,38Zm-47.61,36.2a9.82,9.82,0,0,0,9.8,9.8H800.4a9.82,9.82,0,0,0,9.8-9.8V53.75a9.82,9.82,0,0,0-9.8-9.8H762.59a9.82,9.82,0,0,0-9.8,9.8Z" transform="translate(0 -9.94)"/><path class="b" d="M823.39,13a3,3,0,0,1,3-3,3,3,0,0,1,3,3v61.2a9.82,9.82,0,0,0,9.8,9.8h9.9a3,3,0,0,1,0,6h-9.9a15.83,15.83,0,0,1-15.8-15.8Z" transform="translate(0 -9.94)"/><path class="b" d="M886.29,84a3,3,0,0,1,3,3,3,3,0,0,1-3,3h-10.6a15.83,15.83,0,0,1-15.8-15.8V13a3,3,0,0,1,3-3,3,3,0,0,1,3,3v24.9h20.3a3,3,0,1,1,0,5.9h-20.3v30.4a9.82,9.82,0,0,0,9.8,9.8Z" transform="translate(0 -9.94)"/><path class="a" d="M896.49,83.55a3,3,0,0,1,3-3,3,3,0,0,1,3,3v3.5a3.08,3.08,0,0,1-3,3,3,3,0,0,1-3-3Z" transform="translate(0 -9.94)"/><path class="a" d="M970.29,38a3,3,0,0,1,3,3,3.08,3.08,0,0,1-3,3h-42.4a9.92,9.92,0,0,0-9.9,9.9v20.2a9.86,9.86,0,0,0,9.9,9.9h42.2a3,3,0,0,1,0,6h-42.2A15.88,15.88,0,0,1,912,74.05V53.85A15.88,15.88,0,0,1,927.89,38Z" transform="translate(0 -9.94)"/><path class="a" d="M1033.29,38a15.83,15.83,0,0,1,15.8,15.8v20.4a15.83,15.83,0,0,1-15.8,15.8h-37.8a15.83,15.83,0,0,1-15.8-15.8V53.75A15.83,15.83,0,0,1,995.49,38Zm-47.6,36.2a9.82,9.82,0,0,0,9.8,9.8h37.8a9.82,9.82,0,0,0,9.8-9.8V53.75a9.82,9.82,0,0,0-9.8-9.8h-37.8a9.82,9.82,0,0,0-9.8,9.8Z" transform="translate(0 -9.94)"/><path class="a" d="M1138.59,38a16.17,16.17,0,0,1,16.1,16.2v32.9a3,3,0,0,1-6,0V54.15a9.84,9.84,0,0,0-10.1-9.9h-20.8a9.73,9.73,0,0,0-9.6,9.9v32.9a3.2,3.2,0,0,1-2.9,2.8.75.75,0,0,1-.5.1,2.93,2.93,0,0,1-3-2.9V54.15a9.77,9.77,0,0,0-9.8-9.9h-20a9.82,9.82,0,0,0-9.7,9.9v32.9a3.08,3.08,0,0,1-3.1,2.9,2.9,2.9,0,0,1-2.9-2.9V54.15c0-8.8,7.1-16.2,15.7-16.2h20a15.85,15.85,0,0,1,12.8,6.9c3.3-4,7.8-6.9,13-6.9Z" transform="translate(0 -9.94)"/><g class="c"><path class="a" d="M615.91,141.86H641c5.36,0,9.73,4.73,9.73,10.53v13.53c0,5.8-4.37,10.53-9.73,10.53H621.94c-5.36,0-9.73-4.73-9.73-10.53V125.13a1.9,1.9,0,0,1,1.85-2,1.93,1.93,0,0,1,1.85,2Zm31.21,10.53a6.32,6.32,0,0,0-6.1-6.53H615.91v20.06a6.31,6.31,0,0,0,6,6.53H641a6.32,6.32,0,0,0,6.1-6.53Z" transform="translate(0 -9.94)"/><path class="a" d="M655.8,135.19a1.89,1.89,0,0,1,1.84-2,1.93,1.93,0,0,1,1.85,2v2.34a2,2,0,0,1-1.85,2,1.94,1.94,0,0,1-1.84-2Zm3.69,8.53v30.73a1.93,1.93,0,0,1-1.85,2,1.89,1.89,0,0,1-1.84-2V143.72a1.88,1.88,0,0,1,1.84-1.93A1.92,1.92,0,0,1,659.49,143.72Z" transform="translate(0 -9.94)"/><path class="a" d="M665.46,125.13a1.9,1.9,0,0,1,1.85-2,1.94,1.94,0,0,1,1.85,2v40.79a6.3,6.3,0,0,0,6,6.53h6.09a2,2,0,0,1,0,4h-6.09c-5.36,0-9.73-4.73-9.73-10.53Z" transform="translate(0 -9.94)"/><path class="a" d="M687.93,125.13a1.9,1.9,0,0,1,1.85-2,1.93,1.93,0,0,1,1.84,2v40.79a6.31,6.31,0,0,0,6,6.53h6.09a2,2,0,0,1,0,4h-6.09c-5.36,0-9.73-4.73-9.73-10.53Z" transform="translate(0 -9.94)"/><path class="a" d="M710.4,135.19a1.9,1.9,0,0,1,1.85-2,1.93,1.93,0,0,1,1.84,2v2.34a2,2,0,0,1-1.84,2,1.94,1.94,0,0,1-1.85-2Zm3.69,8.53v30.73a1.93,1.93,0,0,1-1.84,2,1.9,1.9,0,0,1-1.85-2V143.72a1.88,1.88,0,0,1,1.85-1.93A1.91,1.91,0,0,1,714.09,143.72Z" transform="translate(0 -9.94)"/><path class="a" d="M745.79,141.79c5.42,0,9.73,4.73,9.73,10.53v22.13a1.82,1.82,0,1,1-3.63,0V152.32a6.32,6.32,0,0,0-6.1-6.53h-22v28.66a1.94,1.94,0,0,1-1.85,2,1.9,1.9,0,0,1-1.85-2V143.79a2,2,0,0,1,1.85-2Z" transform="translate(0 -9.94)"/><path class="a" d="M764.94,195.18a2,2,0,0,1,0-3.93h24.37a6.33,6.33,0,0,0,6-6.6v-8.4H770.11c-5.36,0-9.73-4.67-9.73-10.53V152.39c0-5.87,4.37-10.6,9.73-10.6h19.2c5.36,0,9.73,4.73,9.73,10.6v32.26c0,5.8-4.37,10.53-9.73,10.53Zm30.41-22.86V152.39a6.29,6.29,0,0,0-6-6.6h-19.2a6.32,6.32,0,0,0-6,6.6v13.33a6.33,6.33,0,0,0,6,6.6Z" transform="translate(0 -9.94)"/><path class="a" d="M837.88,149.06l19.88,21.86a6.27,6.27,0,0,0,1.91-4.53v-4.27a2,2,0,0,1,1.85-2.07,2,2,0,0,1,1.91,2.07v4.27a10.61,10.61,0,0,1-3,7.46s2,2.27,3.33,3.67a2.19,2.19,0,0,1,.55,1.46,1.91,1.91,0,0,1-.55,1.4,1.76,1.76,0,0,1-2.65,0l-4-4.4a8.28,8.28,0,0,1-3.14.6H835.73c-5.17,0-9.42-4.6-9.42-10.19v-4.27c0-5.47,3.94-9.93,8.86-10.2a9.29,9.29,0,0,1-.67-1.06c-.13-.27-3.08-6.8-.13-12.33a10.46,10.46,0,0,1,9-5.07H856.1a1.94,1.94,0,0,1,1.91,2,2,2,0,0,1-1.91,2.07H843.61c-2.65.33-4.5,1.4-5.42,3.13a8.3,8.3,0,0,0-.92,4.06A18.48,18.48,0,0,0,837.88,149.06Zm-2.15,23.46H854l-15.08-16.6h-3.14a6,6,0,0,0-5.66,6.2v4.27A5.89,5.89,0,0,0,835.73,172.52Z" transform="translate(0 -9.94)"/><path class="a" d="M926,141.79a2,2,0,0,1,0,4h-26c-3.51,0-6.52,2.6-6.52,5.67s3,5.66,6.52,5.66h18.34a9.87,9.87,0,0,1,10.16,9.6,10,10,0,0,1-10.16,9.73H891.68a1.89,1.89,0,0,1-1.78-2,1.86,1.86,0,0,1,1.78-1.93h26.59c3.51,0,6.47-2.73,6.47-5.8s-3-5.67-6.47-5.67H899.93c-5.6,0-10.15-4.33-10.15-9.59a9.92,9.92,0,0,1,10.15-9.67Z" transform="translate(0 -9.94)"/><path class="a" d="M943.76,176.45c-5.35,0-9.72-4.73-9.72-10.53V143.79a1.92,1.92,0,0,1,1.84-2,2,2,0,0,1,1.85,2v22.13a6.31,6.31,0,0,0,6,6.53h23.33s-.06-15.4,0-28.59a1.82,1.82,0,1,1,3.63,0v30.59a1.93,1.93,0,0,1-1.84,2Z" transform="translate(0 -9.94)"/><path class="a" d="M978,195.11a1.89,1.89,0,0,1-1.85-2V152.32c0-5.8,4.37-10.53,9.73-10.53h18.89c5.36,0,9.73,4.73,9.73,10.53v13.53c0,5.8-4.37,10.53-9.73,10.53H979.83v16.73A1.93,1.93,0,0,1,978,195.11Zm32.87-42.79a6.32,6.32,0,0,0-6.1-6.53H985.87a6.31,6.31,0,0,0-6,6.53v20.06h24.93a6.32,6.32,0,0,0,6.1-6.53Z" transform="translate(0 -9.94)"/><path class="a" d="M1021.57,195.11a1.89,1.89,0,0,1-1.85-2V152.32c0-5.8,4.37-10.53,9.73-10.53h18.9c5.35,0,9.72,4.73,9.72,10.53v13.53c0,5.8-4.37,10.53-9.72,10.53h-24.93v16.73A1.93,1.93,0,0,1,1021.57,195.11Zm32.87-42.79a6.31,6.31,0,0,0-6.09-6.53h-18.9a6.3,6.3,0,0,0-6,6.53v20.06h24.93a6.31,6.31,0,0,0,6.09-6.53Z" transform="translate(0 -9.94)"/><path class="a" d="M1096.24,141.79c5.35,0,9.72,4.73,9.72,10.53v13.6c0,5.8-4.37,10.53-9.72,10.53H1073c-5.35,0-9.72-4.73-9.72-10.53v-13.6c0-5.8,4.37-10.53,9.72-10.53Zm-29.3,24.13a6.31,6.31,0,0,0,6,6.53h23.27a6.31,6.31,0,0,0,6-6.53v-13.6a6.31,6.31,0,0,0-6-6.53H1073a6.31,6.31,0,0,0-6,6.53Z" transform="translate(0 -9.94)"/><path class="a" d="M1136.37,141.79c5.24,0,9.42,4.6,9.42,10.2a1.76,1.76,0,1,1-3.51,0,6.11,6.11,0,0,0-5.91-6.33h-16.55A6.1,6.1,0,0,0,1114,152v22.53a1.79,1.79,0,1,1-3.57,0V152c0-5.6,4.25-10.2,9.42-10.2Z" transform="translate(0 -9.94)"/><path class="a" d="M1165.86,172.45a1.93,1.93,0,0,1,1.85,2,1.9,1.9,0,0,1-1.85,2h-6.52c-5.36,0-9.73-4.73-9.73-10.53V125.13a1.9,1.9,0,0,1,1.85-2,1.93,1.93,0,0,1,1.84,2v16.59h12.5a2,2,0,0,1,0,3.94h-12.5v20.26a6.31,6.31,0,0,0,6,6.53Z" transform="translate(0 -9.94)"/></g></svg>