<svg xmlns="http://www.w3.org/2000/svg" width="126.3" height="179.11" viewBox="0 0 126.3 179.11"><defs><style>.a{fill:#fff;}</style></defs><title>nz</title><polygon class="a" points="18.07 175.48 18.08 174.73 17.36 175.12 16.79 174.57 16.32 174.56 15.64 174.14 15.76 173.63 17.39 173.49 17.4 173.09 15.95 172.01 15.63 171.19 13.83 170.85 13.42 171.08 13.09 172.3 13.79 173.53 13.37 174.24 13.34 175.56 12.93 176.13 12.45 175.79 12.11 175.95 12.09 177.24 11.08 178.55 11.18 178.86 12.23 179.11 12.81 178.99 12.58 178.41 12.89 178 18.46 176.13 18 175.71 18.07 175.48"/><polygon class="a" points="80.87 92.15 81.2 92.73 81.44 92.56 81.8 91.82 81.47 91.41 79.42 91.78 79.25 91.37 79.6 90.97 80.83 90.44 81.09 89.23 81.67 89.24 82.08 88.97 82.1 88.09 81.69 88.15 81.19 87.67 80.71 88.13 79.73 87.64 79.14 87.97 79.71 88.45 79.64 88.79 78.99 89.26 78.65 89.01 78.41 89.25 78.22 90.06 78.7 90.31 79.86 89.75 80.09 90.03 80.02 90.26 79.51 90.42 78.61 91.29 78.27 91.28 77.14 91.74 76.81 91.43 76.92 90.85 76.67 89.86 77.77 88.76 76.96 88.41 77.38 87.67 78.86 87.05 79.17 86.24 78.77 86.06 77.7 86.86 76.17 87.1 75.89 87.4 76.05 88.15 75.74 88.45 74.52 88.36 73.51 89.33 71.76 90.36 71.19 91.64 70.44 91.79 69.06 91.19 68.84 90.37 68.41 87.78 68.82 87.28 68.86 85.34 67.79 84.24 67.31 84.74 66.25 84.72 65.45 83.65 64.97 82.15 65.4 81.1 66.74 80.07 66.64 79.9 65.35 79.81 64.05 80.19 63.69 81.31 63.35 81.64 63.05 81.47 62.95 81.06 62.88 80.89 58.38 86.11 58.13 92.23 54.62 96.99 53.21 97.78 51.23 97.98 50.57 101.63 50.33 102.96 48.62 107.42 45.55 112.33 43.6 114.57 41.22 116.67 40.06 117.13 38.92 117.99 38.1 118.25 35.49 122.01 33.6 122.73 30.22 125.76 26.42 127.56 25.16 129.28 22.66 131.15 22.1 131.56 20.64 131.13 18.18 132.31 15.77 135.53 15.83 136.04 15.01 136.34 14 138.12 12.99 139.09 13.32 139.74 14.05 140.74 13.94 141.15 12.67 140.31 11.5 141.03 10.67 141.84 11.41 142.25 11.47 142.66 11.4 142.9 10.42 142.71 10.33 143.94 10.32 144 10.22 144.1 9.76 143.35 9.66 143.11 9.18 143.27 8.94 143.84 9.39 144.67 9.29 146.53 8.64 146.83 6.2 146.79 6.02 146.95 6.83 147.61 6.82 148.29 6.47 148.42 5.6 147.69 5.37 147.76 5.59 148.58 5.07 149.21 5.33 149.9 6.86 149.99 7.08 150.57 6.12 151.03 6.63 153.08 6.49 153.32 5.83 152.49 5.35 152.58 3.9 151.5 3.32 151.8 4.12 152.97 3.06 153.19 2.8 154.24 3.62 154.25 4.99 153.8 5.32 153.98 5.39 154.39 3.43 155.24 3.48 156.46 5.04 156.72 5.2 156.97 4.1 158.03 3.22 157.68 0.28 158.78 0 159.19 0.48 160.96 0.96 160.84 2.72 159.3 2.84 160.05 1.7 161.15 2.73 162.5 1.74 162.79 2.06 163.61 3.58 164.14 8.88 164.71 9.46 164.31 9.64 163.5 10.94 163.35 11.62 163.47 13.85 165.85 14.97 165.87 15.8 165.24 17.12 165.5 18.73 167.09 18.46 168.48 18.7 168.62 19.53 167.82 19.93 168 19.99 168.51 20.63 169.16 21.97 168.2 23.35 168.63 24.16 169.4 26.43 169.84 27.56 169.28 27.96 169.6 28.31 169.55 28.32 169.55 28.32 169.54 28.78 169.48 30.94 168.12 31.41 168.37 32.75 167.75 32.59 167.1 33.83 166.2 33.74 165.79 37.63 162.53 38.73 159.93 40.96 158.75 41.71 158.76 42.84 158.2 43.41 158.45 43.66 158.22 43.2 157.22 42.37 157.89 42.2 157.71 42.04 157.47 42.74 156.4 42.64 156.16 42.23 156.08 42.17 155.84 42.67 154.29 43.33 153.89 44.69 151.64 44.48 149.83 45.39 148.56 45.65 147.07 46.66 146.03 47.91 144.35 47.94 142.93 47.99 139.63 48.7 136.28 51.36 133.81 56.65 130.64 58.2 129.34 57.81 128.04 58.22 127.88 59.19 128.95 59.53 128.96 60.19 128.49 61.44 126.95 61.91 126.96 62.71 127.79 62.64 128.06 62.13 128.19 61.23 128.68 61.4 128.92 63.85 128.62 64.5 128.63 64.66 129.22 66.06 129.07 66.13 128.59 66.89 127.86 66.96 128.03 66.87 129.35 67.1 129.5 68.1 128.56 68.26 127.34 67.46 126.41 66.23 126.8 66.01 125.98 65.42 126.54 63.9 126.04 64.14 125.64 64.8 125.31 64.75 124.02 64.19 122.92 65.72 118.8 69.44 116.48 72.06 112.22 72.86 110.86 74.3 108.41 75.12 108.19 75.55 107.08 77.31 105.54 77.81 104.16 79.31 101.98 79.84 100.86 81.58 98.52 81.59 98.04 81.12 97.69 80.33 96.15 79.86 93.52 80.29 92.48 80.87 92.15"/><polygon class="a" points="125.9 44.28 124.7 44.23 123.89 43.05 122.15 43.18 122 43.19 121.06 42.77 120.17 43.56 117.8 44.41 116.91 45.36 114.42 48.49 113.39 48.74 112.52 48.33 111.33 48.98 110.95 48.89 110.81 47.76 105.83 46.41 105.03 45.46 104.14 45.42 101.26 43.69 100.91 44.55 99.97 43.73 99.59 43.74 99.04 43.54 98.57 42.74 98.55 42.2 98.72 38.83 97.86 37.82 98.14 36.89 97.8 36.05 97.99 35.37 97.88 33.86 97.08 32.9 96.41 33.59 95.86 33.33 97.19 31.38 96.8 31.01 95.89 31.49 94.95 30.76 94.69 29.79 93.96 28.67 93.58 28.75 92.73 28.11 92.14 28.26 92.15 28.57 93.01 29.62 92.87 30.13 93.47 31.89 93.05 32.57 93.87 34.44 93.94 36.44 94.75 37.77 94.5 38 93.83 37.8 92.92 37.99 92.15 37.7 90.74 34.48 89.69 34.36 89.35 33.62 88.97 33.57 88.38 34.19 87.44 33.3 86.75 33.55 86.29 33.12 85.09 33.32 84.37 32.65 84.89 32.09 85.5 32.39 86.02 31.83 85.67 30.77 87.09 29.73 86.85 29.36 86.54 29.53 85.78 29.56 85.27 27.61 85.32 27.29 85.93 27.49 85.91 26.89 86.88 26.48 86.03 25.68 86.33 25.2 84.36 23.14 84 22.02 83.15 21.35 82.39 19.41 81.23 18.85 81.13 18 82.51 18.27 83.51 18.93 83.66 18.77 83.8 18.28 82.75 17.05 82.83 16.67 83.42 16.33 83.41 15.89 82.28 14.54 82.02 13.4 81.1 13.31 81.08 12.77 80.67 12.03 80.88 10.66 80.48 10.13 80.23 10.3 79.66 11.3 78.83 11.17 78.84 11.39 79.24 11.85 79.16 12.24 78.79 12.47 78.56 12.32 77.97 10.98 77.52 10.84 77.35 10.4 77.66 10.07 78.26 10.05 78.56 9.72 78.23 9.29 77.25 9.26 75.75 8.17 74.36 9.2 73.81 8.84 74.17 8.13 73.61 7.55 73.23 7.72 72.46 7.27 71.78 8 70.73 7.59 70.7 6.96 71.27 6.05 70.71 5.21 70.1 5.17 70.13 5.83 69.45 6.56 69.48 7.25 69.28 7.86 68.74 7.94 68.34 7.35 68.7 6.8 68.57 6.59 67.01 5.5 67 5.12 67.5 5.1 67.59 4.78 66.3 3.31 66.21 2.49 65.81 2.12 65.04 1.7 65.02 1.01 65.18 1.06 65.94 1.04 65.98 0.66 65.74 0 65.3 0.01 64.3 0.43 63.71 0.89 62.5 0.65 62.13 0.89 62.14 1.33 63.77 2.41 67.94 8.67 68.04 9.65 67.31 10.43 67.09 10.6 67.51 11.72 68.12 11.93 69.73 14.53 69.99 14.59 70.7 13.29 71.52 12.95 71.86 11.86 71.91 11.63 72.16 11.56 72.86 12.46 72.81 12.9 70.75 14.49 70.46 15.27 73.02 18.98 75.71 22.24 76.51 23.42 76.85 23.62 77.06 23.84 77.98 25.81 78.68 26.77 78.99 26.6 79.26 25.98 78.61 24.64 77.59 23.7 77.23 23.43 77.25 23.01 77.89 23.05 79.76 24.82 79.97 24.44 79.72 23.84 80.09 23.52 81.46 23.78 81.73 24.31 80.84 25.11 81.14 25.38 81.76 25.2 82 25.45 81.47 25.84 80.94 25.93 80.73 26.31 81.44 26.67 81.88 26.65 82.22 27.46 82.04 29.47 81.83 29.7 80.33 27.69 79.5 28.26 80.01 29.32 81.44 31.3 82.86 34.76 83.32 35.19 84.13 34.94 85.02 33.99 85.63 34.13 85.52 34.73 86.9 35.28 87.2 35.75 86.08 36.39 85.82 36.94 86.21 37.37 85.77 38.15 85.64 38.31 84.81 36.28 84.05 36.15 83.75 36.63 86.28 43.83 86.56 45.44 86.94 45.65 87.32 45.54 87.82 46.15 87.2 46.46 86.59 46.32 86.03 47.58 86.06 48.4 86.29 48.55 86.66 48.22 87.04 48.37 87 48.84 86.25 49.47 86.81 49.74 87.33 50.26 86.91 50.81 85.91 50.53 85.54 50.8 84.65 55.99 84.36 58.82 82.2 62.22 79.92 62.3 75.56 65.12 75.26 65.89 76.05 68.52 76.83 68.97 80.43 70.43 83.48 72.9 83.95 73.28 84.73 73.45 87.27 73.99 89.54 76.35 91.13 80.26 91.02 81.62 89.17 87.45 86.43 91.57 85.26 92.63 84.84 94.23 85.45 94.43 86.52 94.17 86.64 93.09 86.85 92.86 87.2 93.76 87.24 94.97 87.47 95.21 89.03 94.52 90.19 94.86 90.77 96.24 91.05 97.75 91.37 97.96 93.52 96.74 94.41 96.11 95.31 95.45 97.17 94.4 98.86 92.75 101.28 87.63 102.88 85.45 103.45 84.52 104.54 83.05 105.29 82.71 105.84 81.39 108.39 77.97 108.73 75.21 110.42 70.9 110.19 70.69 109.72 70.86 108.95 70.57 108.78 67.6 109.92 65.6 112.23 63.77 114.5 63.53 118.2 63.25 118.69 63.61 118.52 65.23 118.99 65.98 119.14 65.81 119.18 64.96 120.28 63.78 119.58 62.82 119.54 62.55 119.45 61.84 119.63 60.63 119.72 58.73 120.01 57.96 120.64 58.76 121.02 58.59 121.06 58.05 121.67 57.52 121.96 57.57 122.8 57.16 124.14 54.52 123.89 53.86 124.19 53.25 124 52.4 124.41 51.4 124.23 50.81 124.58 50.03 124.34 49.5 124.76 47.9 125.89 45.81 126.3 44.65 125.9 44.28"/></svg>